# xmcd
#
# Track frame offsets:
#	150
#	21220
#	41062
#	51434
#	71596
#	88716
#	114451
#	127536
#
# Disc length: 2048 seconds
#
# Revision: 0
# Processed by: cddbd v1.5.1PL0 Copyright (c) Steve Scherf et al.
# Submitted via: dBpowerAMP V4.0
#
DISCID=6507fe08
DTITLE=Romi Mayes and the Temporarily Employed - Living Room Sessions Volume 1
DYEAR=2005
DGENRE=Roots
TTITLE0=styx and b.t.o. (tease me)
TTITLE1=ordinary sunday
TTITLE2=comin' home soon
TTITLE3=mama ain't no fool
TTITLE4=arkansas
TTITLE5=out of touch
TTITLE6=never got you
TTITLE7=drink until four
EXTD=www.romimayes.com
EXTT0=
EXTT1=
EXTT2=
EXTT3=
EXTT4=
EXTT5=
EXTT6=
EXTT7=
PLAYORDER=
